# xmcd
# 
# Track frame offsets:
#     150
#     18496
#     35990
#     53162
#     68765
#     85583
#     102786
#     120412
#     135852
#     151748
#     166301
#     185313
# 
# Disc length: 2677
# 
# Revision: 0
# Processed by: cddbd v1.5.2PL0 Copyright (c) Steve Scherf et al.
# Submitted via: BonkEnc v1.0.8
# 
DISCID=8a0a730c
DTITLE=Bec Hance - The Tranquility
DYEAR=2009
DGENRE=Country
TTITLE0=I'll Cry
TTITLE1=Bushfire
TTITLE2=Bullocky
TTITLE3=I Fall
TTITLE4=Tranquility [Title Track]
TTITLE5=Lou And Ray
TTITLE6=Just Add Water
TTITLE7=Jack And The Dog
TTITLE8=My Mother's Words
TTITLE9=You'll Find A Bloke
TTITLE10=He Don't Go To Church On Sundays
TTITLE11=A Fishing Song
EXTD=
EXTT0=
EXTT1=
EXTT2=
EXTT3=
EXTT4=
EXTT5=
EXTT6=
EXTT7=
EXTT8=
EXTT9=
EXTT10=
EXTT11=
PLAYORDER=
